<svg xmlns="http://www.w3.org/2000/svg" viewBox="0 0 128 128" role="img" aria-label="CityU Calendar">
  <defs>
    <linearGradient id="cityuRed" x1="18" y1="12" x2="112" y2="116" gradientUnits="userSpaceOnUse">
      <stop stop-color="#D5202A"/>
      <stop offset="1" stop-color="#9E1820"/>
    </linearGradient>
  </defs>
  <rect width="128" height="128" rx="30" fill="url(#cityuRed)"/>
  <path d="M32 33h64a10 10 0 0 1 10 10v48a12 12 0 0 1-12 12H34a12 12 0 0 1-12-12V43a10 10 0 0 1 10-10Z" fill="#FFF"/>
  <path d="M22 54h84" stroke="#E9A6AA" stroke-width="8"/>
  <path d="M44 23v21M84 23v21" stroke="#FFF" stroke-width="9" stroke-linecap="round"/>
  <path d="M43 72c0-9 7-15 18-15 5 0 10 1 14 4" fill="none" stroke="#A81922" stroke-width="8" stroke-linecap="round"/>
  <path d="M75 89c-4 4-9 6-14 6-11 0-18-6-18-15" fill="none" stroke="#A81922" stroke-width="8" stroke-linecap="round"/>
  <path d="m77 77 7 7 16-19" fill="none" stroke="#E5A72C" stroke-width="8" stroke-linecap="round" stroke-linejoin="round"/>
</svg>
